<?xml version="1.0" encoding="UTF-8"?><svg id="Layer_2" xmlns="http://www.w3.org/2000/svg" viewBox="0 0 2392 1289"><defs><style>.cls-1{fill:#fff;}.cls-2{fill:#940a00;}</style></defs><g id="Layer_1-2"><rect class="cls-1" width="2392" height="1289"/><g><path d="M85,91h82V371h88V91h82V779h-82V469h-88v310H85V91Z"/><path d="M399,91h82V779h-82V91Z"/><path d="M536,617.1V253.76c0-110.58,41.83-173.77,122.5-173.77s122.5,63.19,122.5,173.77v59.24h-77v-65.89c0-49.18-16.4-67.86-42.5-67.86s-42.5,18.69-42.5,67.86v376.68c0,49.18,16.4,66.88,42.5,66.88s42.5-17.7,42.5-66.88v-134.79h-41v-98h118v226.1c0,110.58-41.83,173.77-122.5,173.77s-122.5-63.19-122.5-173.77Z"/><path d="M835,91h82V371h88V91h82V779h-82V469h-88v310h-82V91Z"/><path d="M1149,91h224v98h-142v182h113v99h-113v211h142v98h-224V91Z"/><path d="M1420,91h121.75c85.5,0,122.25,52.13,122.25,158.34v42.29c0,70.81-17.25,116.05-54,135.72v1.51c41.44,16.72,55,67.86,55,145.56v120.97c0,33.44,.75,58.03,9.04,83.6h-84.56c-4.49-17.7-7.48-28.52-7.48-84.57v-125.87c0-63.92-14.21-84.57-51.59-84.57h-28.41v295h-82V91Zm112.81,295c30.56,0,49.19-17.73,49.19-72.89v-53.19c0-49.25-12.67-70.92-41.74-70.92h-37.26v197h29.81Z"/></g><g><path class="cls-2" d="M1789,101h224v98h-142v182h113v98h-113v211h142v99h-224V101Z"/><path class="cls-2" d="M2060,101h125.49c82.17,0,122.51,59.95,122.51,170.03v347.93c0,110.08-40.34,170.03-122.51,170.03h-125.49V101Zm124,590c26.25,0,42-17.71,42-66.91V265.91c0-49.2-15.75-66.91-42-66.91h-42v492h42Z"/></g><g><path class="cls-2" d="M125.94,870h48.66l37.23,313h-36.33l-6.5-61.89v.89h-40.65l-6.5,61h-33.13l37.23-313Zm39.22,210l-16.03-155h-.65l-15.71,155h32.39Z"/><path class="cls-2" d="M229,870h96v45h-59v87h46v45h-46v137h-37v-314Z"/><path class="cls-2" d="M374,915h-38v-45h111v45h-37v269h-36v-269Z"/><path class="cls-2" d="M465,870h98v45h-62v82h49v45h-49v97h62v45h-98v-314Z"/><path class="cls-2" d="M584,870h52.67c38,0,54.33,23.77,54.33,72.21v19.29c0,32.29-7.67,52.92-24,61.9v.94c18.08,7.62,24,30.95,24,66.38v55.17c0,15.25,.33,26.46,3.95,38.12h-36.67c-1.96-8.1-3.27-13.05-3.27-38.7v-57.6c0-29.25-6.22-38.7-22.57-38.7h-12.43v135h-36v-314Zm48.21,134c13.54,0,21.79-8.1,21.79-33.3v-24.3c0-22.5-5.61-32.4-18.49-32.4h-16.51v90h13.21Z"/></g><g><path d="M799,1105.79v-17.79h36v21.35c0,22.24,7.63,30.25,19.77,30.25s19.77-8.01,19.77-31.14c0-25.8-7.63-42.26-32.6-70.28-31.91-36.03-42.32-61.38-42.32-96.97,0-48.93,19.77-77.4,56.88-77.4s55.5,28.47,55.5,78.29v12.9h-36v-16.01c0-22.24-6.94-30.69-19.08-30.69s-19.08,8.45-19.08,29.8c0,22.69,7.98,39.14,32.95,67.17,31.91,36.03,41.97,60.94,41.97,99.64,0,50.71-20.12,79.18-57.58,79.18s-56.19-28.47-56.19-78.29Z"/><path d="M934,1105.72v-236.72h38v240.27c0,22.17,7.31,30.14,19.5,30.14s19.5-7.98,19.5-30.14v-240.27h37v236.72c0,49.65-19.46,78.02-57,78.02s-57-28.37-57-78.02Z"/><path d="M1075,869h56.4c39.58,0,56.6,23.49,56.6,71.37v19.06c0,31.92-7.99,52.31-25,61.18v.58c18.84,7.54,25,30.59,25,65.61v54.53c0,15.07,.34,26.15,4.11,37.68h-38.65c-2.07-7.98-3.46-12.86-3.46-38.13v-56.75c0-28.82-6.57-38.13-23.86-38.13h-13.14v133h-38v-310Zm51.96,133c14.31,0,23.04-8.01,23.04-32.93v-24.03c0-22.25-5.93-32.04-19.55-32.04h-17.45v89h13.96Z"/><path d="M1203.41,869h38.5l25.06,241h.7l25.06-241h35.02l-36.81,310h-50.71l-36.81-310Z"/><path d="M1346,869h104v44h-66v82h53v44h-53v96h66v44h-104v-310Z"/><path d="M1473,869h38v310h-38v-310Z"/><path d="M1539,869h38v266h63v44h-101v-310Z"/><path d="M1659,869h38v266h63v44h-101v-310Z"/><path d="M1809.3,869h51.75l39.59,310h-37.66l-6.98-61.89v.89h-43.65l-6.98,61h-35.66l39.59-310Zm41.65,207l-16.99-153h-.69l-16.65,153h34.33Z"/><path d="M1919,869h48.18l37.12,186h.69v-186h34v310h-39.34l-45.96-227h-.7v227h-34v-310Z"/><path d="M2065,1107.89v-166.7c0-47.88,19.53-76.26,56.5-76.26s56.5,28.37,56.5,76.26v32.81h-37v-35.91c0-20.39-7.6-28.82-19-28.82s-19,8.42-19,28.82v173.35c0,20.39,7.6,28.37,19,28.37s19-7.98,19-28.37v-47.44h37v43.89c0,47.88-19.53,76.26-56.5,76.26s-56.5-28.37-56.5-76.26Z"/><path d="M2201,869h104v44h-66v82h52v44h-52v96h66v44h-104v-310Z"/></g></g></svg>